<?xml version="1.0" encoding="utf-8"?>
<!-- Generator: Adobe Illustrator 26.4.1, SVG Export Plug-In . SVG Version: 6.00 Build 0)  -->
<svg version="1.1" id="Layer_1" xmlns="http://www.w3.org/2000/svg" xmlns:xlink="http://www.w3.org/1999/xlink" x="0px" y="0px"
	 viewBox="0 0 295.1 57.8" style="enable-background:new 0 0 295.1 57.8;" xml:space="preserve">
<style type="text/css">
	.st0{fill:#010101;}
</style>
<path class="st0" d="M295,12.4c-0.2-0.3-0.6-0.5-0.9-0.5h-10.8c-1.3,0-2.4-1.1-2.4-2.4V8.6c0-0.6-0.5-1.1-1.1-1.1h-14.5
	c-1.1,0-2.2,0.7-2.6,1.7l-5.2,12.7L214.2,6.1c-1.1-0.4-2.2-0.6-3.3-0.6H170V2.5c0-0.6-0.5-1-1-1h-2.7L160.2,0
	c-0.3-0.1-0.7,0-0.9,0.2c-0.4,0.3-0.6,0.9-0.6,1.5v0.5c0,0.6,0.2,1.1,0.5,1.4l-0.8,1.7h-0.7c-0.6,0-1.1,0.5-1.1,1.1v4.8
	c0,1.4,0.8,2.7,2.1,3.3c2.9,1.3,3.1,2.1,3.1,2.1c-0.2,0.4-2.3,1.1-6.1,0.3c-2.6-0.5-4.7,1-5.4,1.5l-17.2-4.4
	c-7.2-1.6-12.8-1.9-18.1,2.1l-9.3,7.9L80.2,24c-1.7,0-3.4,0.4-4.9,1.1l-7.7,3.5c-2.8-1.6-6-2.6-9.4-2.6c-7.6,0-14.2,4.7-17,11.3
	l-22.9,8.9H2c-1.1,0-2,0.9-2,2v7.5c0,1.1,0.9,2,2,2l17.1-0.5v-0.4L2,56.4c-0.3,0-0.6-0.3-0.6-0.6v-7.5c0-0.3,0.3-0.6,0.6-0.6h16.9
	l0.3,0h10.2c0.4,0,0.6,0.3,0.6,0.6l0.5,7.1H31l0.1-1.7h11.6c0.9,1.3,1.9,2.6,3.1,3.7l0.5-0.5c-3.4-3.2-5-7.8-5-12.5
	c0-9.4,7.6-17,17-17s17,7.6,17,17c0,4.7-1.6,9.2-5,12.5l0.5,0.5c3.6-3.4,5.8-7.8,5.9-12.6l11.9-2.3L87,50.1l0.4,0.1l2.5-9.7
	c0.1-0.3,0.3-0.5,0.6-0.5l3.3,0.3c0.1,0.7,0.3,1.3,0.9,1.9c3.9,4.5,20.1,5.9,22.9,6.1c0.2,1.5,1.8,2,3.3,2h6.9l4.7,5.7l0.3-0.2
	l-4-5.4h10.6c3.9,2.5,13.2,3,20.4,3c0,0,0,0,0,0l79.5-2.1c1,2.3,2.5,4.3,4.4,6.1l0.5-0.5c-3.4-3.2-5-7.8-5-12.5c0-9.4,7.6-17,17-17
	s17,7.6,17,17c0,4.7-1.6,9.2-5,12.5l0.5,0.5c3.7-3.5,5.9-8,5.9-13c0-0.4,0-0.9-0.1-1.3h6.8c2.3,0,4.2-1.9,4.2-4.2v-2.7l9.5-22.7
	C295.2,13.1,295.2,12.7,295,12.4z M42.1,52.7H31.2l0.3-4.4c0-1.1-0.9-2-2-2h-6.6l17.7-6.8c-0.4,1.6-0.7,3.2-0.7,4.9
	C39.9,47.3,40.7,50.1,42.1,52.7z M166.7,2.9h1.8v2.6H160l0.7-1.4L166.7,2.9z M159.8,1.8c0-0.4,0.2-0.6,0.1-0.6l4.3,1L160,3
	c-0.1,0-0.2-0.2-0.2-0.6V1.8z M155.2,18.8c3.4,0.7,7.4,0.6,8-1.4c0.5-1.4-0.9-2.8-4-4.2c-0.7-0.3-1.1-1-1.1-1.7V7.2h11.4l5,9.9
	c0.2,0.4,0.6,0.7,1.1,0.7h15.6c1.3,0,2.6,0.1,3.9,0.4l0.2,19.6h-15.6c-2.9,0-5.7-0.5-8.4-1.6l-14.1-5.7c-2.9-1.1-5.9-1.7-9-1.7h-6.3
	c-0.2,0-0.3-0.2-0.3-0.3v-3l3.8,0h0.6l36.1-0.2v-0.7l-5.4,0c-3.2,0-6.3-0.7-9.4-1.5l-14.8-3.8C153.1,18.8,154.1,18.5,155.2,18.8z
	 M112.1,24.2l5.3-4.5c3.6-2.6,7.2-3,14.6-1.3l13.6,3.6c1.8,0.5,2.1,0.9,2.1,0.9c-0.1,0.2-0.4,0.5-0.9,0.8c-0.5,0.3-1.2,0.6-1.8,0.8
	L112.1,24.2z M115.7,17.4c4.8-3.6,10.1-3.3,16.9-1.8l34.3,8.8c0.1,0,0.2,0,0.3,0.1l-19.1-0.1c0.6-0.4,1-1,1-1.6
	c0-1.3-1.7-1.9-3.2-2.2L132.3,17c-7.7-1.7-11.8-1.3-15.8,1.6l-6.6,5.6l-2.2,0L115.7,17.4z M117.7,47.5c-3.1-0.2-18.7-1.7-22.3-5.8
	c-0.4-0.4-0.6-0.9-0.7-1.3l7.6,0.6c0,0.5,0.3,1,0.7,1.4c2.6,2.9,12.4,3.4,14.8,3.4V47.5z M103.1,41l14.6,1.1V45
	c-2.3-0.1-11.8-0.5-14.2-3.2C103.3,41.6,103.1,41.3,103.1,41z M117.7,40.1v1.1l-27-2.1c-0.8-0.1-1.5,0.5-1.7,1.2l-0.2,1.1l-12.1,2.3
	c-0.1-3.8-1.4-7.3-3.5-10.2h6v0.1c0,0.7,0.6,1.2,1.2,1.2h5c0.7,0,1.2-0.6,1.2-1.2v-1.1c0-0.7-0.6-1.2-1.2-1.2h-5
	c-0.7,0-1.2,0.6-1.2,1.2v0.1h-6.6c-0.9-1.1-2-2.2-3.2-3l6.7-3c1.3-0.6,2.8-0.9,4.2-0.9l59.6-0.3v3.7h-8c-0.4,0-0.8,0.4-0.8,0.8v9.3
	h-12.5C118,39.3,117.7,39.6,117.7,40.1z M79.8,33.6v-1.1c0-0.3,0.2-0.5,0.5-0.5h5c0.3,0,0.5,0.2,0.5,0.5v1.1c0,0.3-0.2,0.5-0.5,0.5
	h-5C80,34.2,79.8,33.9,79.8,33.6z M139.1,49.3H121c-0.4,0-2.4-0.1-2.4-1.4v-7.7H131v3.1c0,1.6,1.3,2.8,3.1,2.8h4.9V49.3z
	 M134.2,45.2L134.2,45.2c-1.2,0-2.1-0.7-2.1-1.8V30.2h8.1v15H134.2z M159.8,52.4L159.8,52.4c-9.8,0-16.8-1-19.7-2.8v-3.4h0.2
	c0.4,0,0.8-0.4,0.8-0.8V30.5h7c2.9,0,5.7,0.5,8.4,1.6l14.1,5.7c2.9,1.2,5.9,1.7,9,1.7h15.6l0,2.9h0.5l0-2.9h42.7
	c-0.4,1.5-0.7,3.1-0.7,4.8c0,2.1,0.4,4,1.1,5.9L159.8,52.4z M239.1,37.9h-43.2l0.2-19.4c0.2,0.1,0.5,0.1,0.7,0.2l45.1,14.2
	C240.7,34.4,239.7,36.1,239.1,37.9z M242.6,32.1L197,17.7c-1.9-0.6-3.8-0.9-5.8-0.9h-15.6c-0.1,0-0.2,0-0.2-0.1l-4.8-9.5h32.1
	c3,0.9,10.8,3.5,22,10c10.6,6.1,19.8,9.4,23.4,10.6C246.1,28.9,244.2,30.3,242.6,32.1z M255.6,26c-2.1,0.1-4.1,0.5-5.9,1.2
	c-2.2-0.7-12.4-3.9-24.3-10.8c-8.6-5-15.3-7.7-19.3-9.1h4.8c0.9,0,1.8,0.2,2.7,0.5l43,15.8L255.6,26z M283.8,38.8
	c0,1.4-1.1,2.5-2.5,2.5h-7c-0.3-1.7-0.8-3.4-1.5-4.9h11V38.8z M284,35.4h-11.7c-3-5.3-8.5-9-14.9-9.4l0.3-0.6h30.5L284,35.4z
	 M288.6,24.4h-30.5l6-14.5c0.2-0.4,0.6-0.7,1-0.7h14v0.4c0,2.2,1.8,4.1,4.1,4.1h10L288.6,24.4z"/>
</svg>
