<?xml version="1.0" encoding="utf-8"?>
<!-- Generator: Adobe Illustrator 26.4.1, SVG Export Plug-In . SVG Version: 6.00 Build 0)  -->
<svg version="1.1" id="Layer_1" xmlns="http://www.w3.org/2000/svg" xmlns:xlink="http://www.w3.org/1999/xlink" x="0px" y="0px"
	 viewBox="0 0 841.89 597.88" style="enable-background:new 0 0 841.89 597.88;" xml:space="preserve">
<style type="text/css">
	.st0{fill:none;stroke:#EF373F;stroke-width:0.5;stroke-miterlimit:10;}
	.st1{fill:none;stroke:#EF373F;stroke-miterlimit:10;}
</style>
<path class="st0" d="M1610.94,241.25v114.8H867.98v-114.8c0.22-16.96,15.65-31.46,32.6-31.46h677.76
	C1595.63,209.77,1611.17,223.97,1610.94,241.25z"/>
<path class="st1" d="M969.83-585.1l2.46-1.43c2.85-1.65,6.5-0.53,7.94,2.42l6.8,13.96c4.15,8.53,12.94,13.6,22.39,12.91
	c0.48-0.03,0.97-0.09,1.44-0.15l562.89-76.49c1.11-0.15,2.23-0.26,3.34-0.34c28.27-2.05,53.05,18.4,56.44,46.56l35.72,297.4
	c1.82,15.16-2.53,29.99-12.23,41.77c-9.57,11.61-23.65,18.9-38.63,19.99c-1.35,0.1-2.72,0.15-4.07,0.14l-444.56,0l0-14.19
	l444.57,0.02c24.66,0,43.8-21.55,40.85-46.05l-35.72-297.4c-2.59-21.54-22.3-36.78-43.79-33.86l-562.89,76.49
	c-15.94,2.16-31.46-6.14-38.49-20.6l-6.71-13.78C966.27-580.39,967.25-583.61,969.83-585.1z"/>
<path class="st1" d="M1787.05,299.64h-8.79v-79.94c0.01-5.14-4.05-9.89-9.35-9.92h-19.84c-5.13-0.03-9.34,4.75-9.35,9.92v46.77
	c-0.02,12.02-9.65,21.83-21.54,21.83c-11.9,0-21.52-9.81-21.54-21.83V219.7c-0.01-5.17-4.23-9.95-9.35-9.92h-19.84
	c-5.3,0.03-9.36,4.78-9.35,9.92v79.94h-8.79c-1.79,0.01-3.12,1.66-3.12,3.4v33.73h72h72v-33.73
	C1790.17,301.31,1788.84,299.65,1787.05,299.64z"/>
</svg>
